<svg width="127" height="18" viewBox="0 0 127 18" fill="none" xmlns="http://www.w3.org/2000/svg">
<path d="M7.87726 0.867963C8.2418 -0.289321 9.82514 -0.289321 10.1885 0.867963L11.4887 5.00453C11.5681 5.25645 11.7225 5.47596 11.9299 5.63168C12.1372 5.7874 12.3868 5.87135 12.6431 5.87155H16.8499C18.0274 5.87155 18.5159 7.42967 17.5644 8.14591L14.162 10.7017C13.9542 10.8576 13.7995 11.0775 13.7201 11.3298C13.6406 11.5822 13.6405 11.8541 13.7197 12.1066L15.0199 16.2431C15.3844 17.4004 14.1024 18.3642 13.1486 17.6479L9.74615 15.0921C9.53861 14.9363 9.28872 14.8524 9.03226 14.8524C8.77579 14.8524 8.5259 14.9363 8.31836 15.0921L4.91595 17.6479C3.96328 18.3642 2.68251 17.4004 3.04584 16.2431L4.34605 12.1066C4.42524 11.8541 4.4251 11.5822 4.34564 11.3298C4.26618 11.0775 4.11149 10.8576 3.90373 10.7017L0.502545 8.14716C-0.448914 7.43093 0.0407899 5.87281 1.21705 5.87281H5.42267C5.67912 5.87288 5.92902 5.78904 6.13659 5.63331C6.34417 5.47757 6.49877 5.25791 6.57827 5.00579L7.87847 0.869219L7.87726 0.867963Z" fill="#CC3B34"/>
<path d="M34.9445 0.867963C35.3091 -0.289321 36.8924 -0.289321 37.2557 0.867963L38.5559 5.00453C38.6354 5.25645 38.7898 5.47596 38.9971 5.63168C39.2044 5.7874 39.4541 5.87135 39.7103 5.87155H43.9172C45.0946 5.87155 45.5831 7.42967 44.6317 8.14591L41.2292 10.7017C41.0215 10.8576 40.8668 11.0775 40.7873 11.3298C40.7079 11.5822 40.7077 11.8541 40.7869 12.1066L42.0871 16.2431C42.4517 17.4004 41.1697 18.3642 40.2158 17.6479L36.8134 15.0921C36.6059 14.9363 36.356 14.8524 36.0995 14.8524C35.843 14.8524 35.5932 14.9363 35.3856 15.0921L31.9832 17.6479C31.0305 18.3642 29.7498 17.4004 30.1131 16.2431L31.4133 12.1066C31.4925 11.8541 31.4924 11.5822 31.4129 11.3298C31.3334 11.0775 31.1787 10.8576 30.971 10.7017L27.5698 8.14716C26.6183 7.43093 27.1081 5.87281 28.2843 5.87281H32.4899C32.7464 5.87288 32.9963 5.78904 33.2039 5.63331C33.4114 5.47757 33.566 5.25791 33.6455 5.00579L34.9457 0.869219L34.9445 0.867963Z" fill="#CC3B34"/>
<path d="M62.0118 0.867963C62.3763 -0.289321 63.9597 -0.289321 64.323 0.867963L65.6232 5.00453C65.7026 5.25645 65.857 5.47596 66.0644 5.63168C66.2717 5.7874 66.5213 5.87135 66.7776 5.87155H70.9844C72.1619 5.87155 72.6504 7.42967 71.6989 8.14591L68.2965 10.7017C68.0888 10.8576 67.9341 11.0775 67.8546 11.3298C67.7751 11.5822 67.775 11.8541 67.8542 12.1066L69.1544 16.2431C69.5189 17.4004 68.237 18.3642 67.2831 17.6479L63.8807 15.0921C63.6731 14.9363 63.4232 14.8524 63.1668 14.8524C62.9103 14.8524 62.6604 14.9363 62.4529 15.0921L59.0505 17.6479C58.0978 18.3642 56.817 17.4004 57.1804 16.2431L58.4806 12.1066C58.5598 11.8541 58.5596 11.5822 58.4802 11.3298C58.4007 11.0775 58.246 10.8576 58.0383 10.7017L54.6371 8.14716C53.6856 7.43093 54.1753 5.87281 55.3516 5.87281H59.5572C59.8136 5.87288 60.0635 5.78904 60.2711 5.63331C60.4787 5.47757 60.6333 5.25791 60.7128 5.00579L62.013 0.869219L62.0118 0.867963Z" fill="#CC3B34"/>
<path d="M89.079 0.867963C89.4436 -0.289321 91.0269 -0.289321 91.3902 0.867963L92.6905 5.00453C92.7699 5.25645 92.9243 5.47596 93.1316 5.63168C93.339 5.7874 93.5886 5.87135 93.8448 5.87155H98.0517C99.2291 5.87155 99.7176 7.42967 98.7662 8.14591L95.3638 10.7017C95.156 10.8576 95.0013 11.0775 94.9219 11.3298C94.8424 11.5822 94.8423 11.8541 94.9215 12.1066L96.2217 16.2431C96.5862 17.4004 95.3042 18.3642 94.3503 17.6479L90.9479 15.0921C90.7404 14.9363 90.4905 14.8524 90.234 14.8524C89.9776 14.8524 89.7277 14.9363 89.5201 15.0921L86.1177 17.6479C85.1651 18.3642 83.8843 17.4004 84.2476 16.2431L85.5478 12.1066C85.627 11.8541 85.6269 11.5822 85.5474 11.3298C85.468 11.0775 85.3133 10.8576 85.1055 10.7017L81.7043 8.14716C80.7529 7.43093 81.2426 5.87281 82.4188 5.87281H86.6244C86.8809 5.87288 87.1308 5.78904 87.3384 5.63331C87.5459 5.47757 87.7006 5.25791 87.7801 5.00579L89.0803 0.869219L89.079 0.867963Z" fill="#CC3B34"/>
<path d="M116.146 0.867963C116.511 -0.289321 118.094 -0.289321 118.457 0.867963L119.758 5.00453C119.837 5.25645 119.992 5.47596 120.199 5.63168C120.406 5.7874 120.656 5.87135 120.912 5.87155H125.119C126.296 5.87155 126.785 7.42967 125.833 8.14591L122.431 10.7017C122.223 10.8576 122.069 11.0775 121.989 11.3298C121.91 11.5822 121.909 11.8541 121.989 12.1066L123.289 16.2431C123.653 17.4004 122.371 18.3642 121.418 17.6479L118.015 15.0921C117.808 14.9363 117.558 14.8524 117.301 14.8524C117.045 14.8524 116.795 14.9363 116.587 15.0921L113.185 17.6479C112.232 18.3642 110.951 17.4004 111.315 16.2431L112.615 12.1066C112.694 11.8541 112.694 11.5822 112.615 11.3298C112.535 11.0775 112.38 10.8576 112.173 10.7017L108.772 8.14716C107.82 7.43093 108.31 5.87281 109.486 5.87281H113.692C113.948 5.87288 114.198 5.78904 114.406 5.63331C114.613 5.47757 114.768 5.25791 114.847 5.00579L116.147 0.869219L116.146 0.867963Z" fill="#CC3B34"/>
</svg>
