<svg width="127" height="22" viewBox="0 0 127 22" fill="none" xmlns="http://www.w3.org/2000/svg">
<path d="M7.87726 4.86796C8.2418 3.71068 9.82514 3.71068 10.1885 4.86796L11.4887 9.00453C11.5681 9.25645 11.7225 9.47596 11.9299 9.63168C12.1372 9.7874 12.3868 9.87135 12.6431 9.87155H16.8499C18.0274 9.87155 18.5159 11.4297 17.5644 12.1459L14.162 14.7017C13.9542 14.8576 13.7995 15.0775 13.7201 15.3298C13.6406 15.5822 13.6405 15.8541 13.7197 16.1066L15.0199 20.2431C15.3844 21.4004 14.1024 22.3642 13.1486 21.6479L9.74615 19.0921C9.53861 18.9363 9.28872 18.8524 9.03226 18.8524C8.77579 18.8524 8.5259 18.9363 8.31836 19.0921L4.91595 21.6479C3.96328 22.3642 2.68251 21.4004 3.04584 20.2431L4.34605 16.1066C4.42524 15.8541 4.4251 15.5822 4.34564 15.3298C4.26618 15.0775 4.11149 14.8576 3.90373 14.7017L0.502545 12.1472C-0.448914 11.4309 0.0407899 9.87281 1.21705 9.87281H5.42267C5.67912 9.87288 5.92902 9.78904 6.13659 9.63331C6.34417 9.47757 6.49877 9.25791 6.57827 9.00579L7.87847 4.86922L7.87726 4.86796Z" fill="#F5E1B5"/>
<path d="M34.9445 2.86796C35.3091 1.71068 36.8924 1.71068 37.2557 2.86796L38.5559 7.00453C38.6354 7.25645 38.7898 7.47596 38.9971 7.63168C39.2044 7.7874 39.4541 7.87135 39.7103 7.87155H43.9172C45.0946 7.87155 45.5831 9.42967 44.6317 10.1459L41.2292 12.7017C41.0215 12.8576 40.8668 13.0775 40.7873 13.3298C40.7079 13.5822 40.7077 13.8541 40.7869 14.1066L42.0871 18.2431C42.4517 19.4004 41.1697 20.3642 40.2158 19.6479L36.8134 17.0921C36.6059 16.9363 36.356 16.8524 36.0995 16.8524C35.843 16.8524 35.5932 16.9363 35.3856 17.0921L31.9832 19.6479C31.0305 20.3642 29.7498 19.4004 30.1131 18.2431L31.4133 14.1066C31.4925 13.8541 31.4924 13.5822 31.4129 13.3298C31.3334 13.0775 31.1787 12.8576 30.971 12.7017L27.5698 10.1472C26.6183 9.43093 27.1081 7.87281 28.2843 7.87281H32.4899C32.7464 7.87288 32.9963 7.78904 33.2039 7.63331C33.4114 7.47757 33.566 7.25791 33.6455 7.00579L34.9457 2.86922L34.9445 2.86796Z" fill="#F5E1B5"/>
<path d="M62.0117 0.867963C62.3763 -0.289321 63.9596 -0.289321 64.323 0.867963L65.6232 5.00453C65.7026 5.25645 65.857 5.47596 66.0643 5.63168C66.2717 5.7874 66.5213 5.87135 66.7775 5.87155H70.9844C72.1619 5.87155 72.6503 7.42967 71.6989 8.14591L68.2965 10.7017C68.0887 10.8576 67.934 11.0775 67.8546 11.3298C67.7751 11.5822 67.775 11.8541 67.8542 12.1066L69.1544 16.2431C69.5189 17.4004 68.2369 18.3642 67.283 17.6479L63.8806 15.0921C63.6731 14.9363 63.4232 14.8524 63.1667 14.8524C62.9103 14.8524 62.6604 14.9363 62.4528 15.0921L59.0504 17.6479C58.0978 18.3642 56.817 17.4004 57.1803 16.2431L58.4805 12.1066C58.5597 11.8541 58.5596 11.5822 58.4801 11.3298C58.4007 11.0775 58.246 10.8576 58.0382 10.7017L54.637 8.14716C53.6856 7.43093 54.1753 5.87281 55.3515 5.87281H59.5572C59.8136 5.87288 60.0635 5.78904 60.2711 5.63331C60.4787 5.47757 60.6333 5.25791 60.7128 5.00579L62.013 0.869219L62.0117 0.867963Z" fill="#F5E1B5"/>
<path d="M89.079 2.86796C89.4436 1.71068 91.0269 1.71068 91.3902 2.86796L92.6904 7.00453C92.7699 7.25645 92.9243 7.47596 93.1316 7.63168C93.3389 7.7874 93.5886 7.87135 93.8448 7.87155H98.0516C99.2291 7.87155 99.7176 9.42967 98.7661 10.1459L95.3637 12.7017C95.156 12.8576 95.0013 13.0775 94.9218 13.3298C94.8424 13.5822 94.8422 13.8541 94.9214 14.1066L96.2216 18.2431C96.5862 19.4004 95.3042 20.3642 94.3503 19.6479L90.9479 17.0921C90.7404 16.9363 90.4905 16.8524 90.234 16.8524C89.9775 16.8524 89.7276 16.9363 89.5201 17.0921L86.1177 19.6479C85.165 20.3642 83.8843 19.4004 84.2476 18.2431L85.5478 14.1066C85.627 13.8541 85.6269 13.5822 85.5474 13.3298C85.4679 13.0775 85.3132 12.8576 85.1055 12.7017L81.7043 10.1472C80.7528 9.43093 81.2425 7.87281 82.4188 7.87281H86.6244C86.8809 7.87288 87.1308 7.78904 87.3383 7.63331C87.5459 7.47757 87.7005 7.25791 87.78 7.00579L89.0802 2.86922L89.079 2.86796Z" fill="#F5E1B5"/>
<path d="M116.146 4.86796C116.511 3.71068 118.094 3.71068 118.457 4.86796L119.758 9.00453C119.837 9.25645 119.992 9.47596 120.199 9.63168C120.406 9.7874 120.656 9.87135 120.912 9.87155H125.119C126.296 9.87155 126.785 11.4297 125.833 12.1459L122.431 14.7017C122.223 14.8576 122.069 15.0775 121.989 15.3298C121.91 15.5822 121.909 15.8541 121.989 16.1066L123.289 20.2431C123.653 21.4004 122.371 22.3642 121.418 21.6479L118.015 19.0921C117.808 18.9363 117.558 18.8524 117.301 18.8524C117.045 18.8524 116.795 18.9363 116.587 19.0921L113.185 21.6479C112.232 22.3642 110.951 21.4004 111.315 20.2431L112.615 16.1066C112.694 15.8541 112.694 15.5822 112.615 15.3298C112.535 15.0775 112.38 14.8576 112.173 14.7017L108.772 12.1472C107.82 11.4309 108.31 9.87281 109.486 9.87281H113.692C113.948 9.87288 114.198 9.78904 114.406 9.63331C114.613 9.47757 114.768 9.25791 114.847 9.00579L116.147 4.86922L116.146 4.86796Z" fill="#F5E1B5"/>
</svg>
